<svg width="321" height="25" viewBox="0 0 321 25" fill="none" xmlns="http://www.w3.org/2000/svg">
<path d="M18.8003 24L15.5938 15.6694H5.7002L2.4292 24H0.737305L10.0024 0.361816H11.5171L20.5405 24H18.8003ZM15.062 14.1709L11.8071 5.34082C11.7212 5.11523 11.6138 4.8252 11.4849 4.4707C11.3667 4.11621 11.2378 3.74023 11.0981 3.34277C10.9692 2.94531 10.8403 2.56934 10.7114 2.21484C10.604 2.59082 10.4858 2.9668 10.3569 3.34277C10.228 3.71875 10.1045 4.08398 9.98633 4.43848C9.86816 4.78223 9.75537 5.09375 9.64795 5.37305L6.26416 14.1709H15.062ZM41.0205 24H39.3286L25.4067 3.16553H25.3262C25.3477 3.74561 25.3638 4.33643 25.3745 4.93799C25.396 5.52881 25.4121 6.14111 25.4229 6.7749C25.4443 7.39795 25.4551 8.04248 25.4551 8.7085V24H23.876V0.442383H25.584L39.4575 21.2124H39.5381C39.5273 20.7397 39.5112 20.1919 39.4897 19.5688C39.479 18.9458 39.4629 18.3066 39.4414 17.6514C39.4307 16.9961 39.4253 16.3784 39.4253 15.7983V0.442383H41.0205V24ZM47.6914 24V0.442383H49.3511V24H47.6914ZM66.2056 24L57.5527 2.24707H57.4722C57.4937 2.64453 57.5098 3.06348 57.5205 3.50391C57.542 3.93359 57.5581 4.38477 57.5688 4.85742C57.5796 5.33008 57.585 5.82422 57.585 6.33984V24H56.0059V0.442383H58.5195L66.8662 21.4219H66.9629L75.374 0.442383H77.8232V24H76.1958V6.14648C76.1958 5.72754 76.2012 5.29785 76.2119 4.85742C76.2227 4.41699 76.2334 3.98193 76.2441 3.55225C76.2656 3.11182 76.2871 2.6875 76.3086 2.2793H76.2119L67.5269 24H66.2056ZM99.2378 24L96.0312 15.6694H86.1377L82.8667 24H81.1748L90.4399 0.361816H91.9546L100.978 24H99.2378ZM95.4995 14.1709L92.2446 5.34082C92.1587 5.11523 92.0513 4.8252 91.9224 4.4707C91.8042 4.11621 91.6753 3.74023 91.5356 3.34277C91.4067 2.94531 91.2778 2.56934 91.1489 2.21484C91.0415 2.59082 90.9233 2.9668 90.7944 3.34277C90.6655 3.71875 90.542 4.08398 90.4238 4.43848C90.3057 4.78223 90.1929 5.09375 90.0854 5.37305L86.7017 14.1709H95.4995ZM104.313 24V0.442383H105.973V22.4854H117.188V24H104.313ZM142.776 17.9253C142.776 19.3325 142.421 20.5142 141.712 21.4702C141.003 22.4155 140.042 23.1299 138.828 23.6133C137.614 24.0859 136.239 24.3223 134.703 24.3223C133.747 24.3223 132.877 24.2739 132.093 24.1772C131.319 24.0913 130.616 23.9731 129.982 23.8228C129.359 23.6724 128.79 23.5005 128.274 23.3071V21.6475C129.112 21.9697 130.079 22.2544 131.174 22.5015C132.281 22.7378 133.484 22.856 134.784 22.856C136.008 22.856 137.093 22.6787 138.039 22.3242C138.995 21.9697 139.747 21.4326 140.294 20.7129C140.842 19.9932 141.116 19.0854 141.116 17.9897C141.116 17.0229 140.885 16.2334 140.423 15.6211C139.972 14.998 139.29 14.4663 138.377 14.0259C137.464 13.5747 136.314 13.1182 134.929 12.6562C133.962 12.3232 133.081 11.9741 132.286 11.6089C131.502 11.2329 130.831 10.8032 130.272 10.3198C129.713 9.82568 129.284 9.23486 128.983 8.54736C128.693 7.84912 128.548 7.02734 128.548 6.08203C128.548 4.78223 128.875 3.69189 129.531 2.81104C130.197 1.91943 131.094 1.24805 132.222 0.796875C133.36 0.334961 134.639 0.104004 136.057 0.104004C137.185 0.104004 138.253 0.211426 139.263 0.42627C140.284 0.630371 141.267 0.941895 142.212 1.36084L141.632 2.79492C140.687 2.38672 139.741 2.08594 138.796 1.89258C137.851 1.69922 136.916 1.60254 135.992 1.60254C134.886 1.60254 133.897 1.76904 133.027 2.10205C132.168 2.42432 131.486 2.91309 130.981 3.56836C130.476 4.22363 130.224 5.05078 130.224 6.0498C130.224 7.08105 130.455 7.91357 130.917 8.54736C131.389 9.18115 132.055 9.70752 132.915 10.1265C133.785 10.5454 134.811 10.9536 135.992 11.3511C137.389 11.8237 138.592 12.3232 139.602 12.8496C140.611 13.3652 141.39 14.0205 141.938 14.8154C142.497 15.6104 142.776 16.647 142.776 17.9253ZM153.975 24H152.299V1.94092H144.661V0.442383H161.612V1.94092H153.975V24ZM165.125 24V0.442383H166.785V24H165.125ZM183.639 24L174.986 2.24707H174.906C174.927 2.64453 174.943 3.06348 174.954 3.50391C174.976 3.93359 174.992 4.38477 175.002 4.85742C175.013 5.33008 175.019 5.82422 175.019 6.33984V24H173.439V0.442383H175.953L184.3 21.4219H184.396L192.808 0.442383H195.257V24H193.629V6.14648C193.629 5.72754 193.635 5.29785 193.646 4.85742C193.656 4.41699 193.667 3.98193 193.678 3.55225C193.699 3.11182 193.721 2.6875 193.742 2.2793H193.646L184.96 24H183.639ZM219.282 0.442383V15.6855C219.282 17.5225 218.927 19.0854 218.218 20.3745C217.509 21.6528 216.489 22.6304 215.157 23.3071C213.835 23.9839 212.251 24.3223 210.403 24.3223C207.6 24.3223 205.446 23.5649 203.942 22.0503C202.438 20.5249 201.686 18.3818 201.686 15.6211V0.442383H203.33V15.6211C203.33 17.9844 203.942 19.7837 205.167 21.019C206.402 22.2437 208.174 22.856 210.484 22.856C211.999 22.856 213.288 22.5874 214.351 22.0503C215.415 21.5024 216.226 20.7075 216.784 19.6655C217.343 18.6128 217.622 17.3398 217.622 15.8467V0.442383H219.282ZM225.679 24V0.442383H227.338V22.4854H238.553V24H225.679ZM257.341 24L254.135 15.6694H244.241L240.97 24H239.278L248.543 0.361816H250.058L259.082 24H257.341ZM253.603 14.1709L250.348 5.34082C250.262 5.11523 250.155 4.8252 250.026 4.4707C249.908 4.11621 249.779 3.74023 249.639 3.34277C249.51 2.94531 249.381 2.56934 249.252 2.21484C249.145 2.59082 249.027 2.9668 248.898 3.34277C248.769 3.71875 248.646 4.08398 248.527 4.43848C248.409 4.78223 248.296 5.09375 248.189 5.37305L244.805 14.1709H253.603ZM268.572 24H266.896V1.94092H259.259V0.442383H276.21V1.94092H268.572V24ZM299.542 12.189C299.542 13.9829 299.322 15.6211 298.881 17.1035C298.441 18.5859 297.78 19.8643 296.899 20.9385C296.019 22.0127 294.917 22.8452 293.596 23.436C292.286 24.0269 290.755 24.3223 289.004 24.3223C287.242 24.3223 285.701 24.0269 284.379 23.436C283.058 22.8452 281.957 22.0127 281.076 20.9385C280.206 19.8535 279.551 18.5698 279.11 17.0874C278.67 15.5942 278.45 13.9507 278.45 12.1567C278.45 9.77197 278.853 7.67188 279.658 5.85645C280.475 4.04102 281.672 2.62305 283.251 1.60254C284.841 0.582031 286.802 0.0717773 289.133 0.0717773C291.367 0.0717773 293.258 0.560547 294.805 1.53809C296.362 2.50488 297.539 3.896 298.333 5.71143C299.139 7.51611 299.542 9.67529 299.542 12.189ZM280.19 12.1729C280.19 14.2783 280.507 16.1367 281.141 17.748C281.774 19.3486 282.747 20.6001 284.057 21.5024C285.368 22.4048 287.022 22.856 289.02 22.856C291.04 22.856 292.699 22.4102 293.999 21.5186C295.299 20.627 296.26 19.3809 296.883 17.7803C297.506 16.1797 297.818 14.3159 297.818 12.189C297.818 8.82666 297.082 6.21631 295.61 4.35791C294.149 2.49951 291.99 1.57031 289.133 1.57031C287.124 1.57031 285.454 2.01611 284.122 2.90771C282.8 3.79932 281.812 5.04004 281.157 6.62988C280.512 8.21973 280.19 10.0674 280.19 12.1729ZM310.676 0.442383C312.545 0.442383 314.103 0.646484 315.349 1.05469C316.606 1.46289 317.551 2.13428 318.185 3.06885C318.819 4.00342 319.136 5.26562 319.136 6.85547C319.136 8.04785 318.916 9.07373 318.475 9.93311C318.045 10.7817 317.449 11.48 316.687 12.0278C315.924 12.5757 315.043 12.9946 314.044 13.2847L320.505 24H318.54L312.465 13.752H306.616V24H304.956V0.442383H310.676ZM310.515 1.90869H306.616V12.2856H311.305C313.228 12.2856 314.726 11.8237 315.8 10.8999C316.885 9.97607 317.428 8.64941 317.428 6.91992C317.428 5.01855 316.858 3.70801 315.72 2.98828C314.581 2.26855 312.846 1.90869 310.515 1.90869Z" fill="#A4AEB7"/>
</svg>
